<svg id="Layer_1" data-name="Layer 1" xmlns="http://www.w3.org/2000/svg" viewBox="0 0 500 500"><defs><style>.cls-1{fill:#e9fffa;}.cls-2{fill:#ecffd4;}.cls-3{fill:#ffe9ed;}.cls-4{fill:#006a71;}.cls-5{fill:#c9ffec;}.cls-6{fill:#f15a29;}.cls-7{fill:#be3400;}.cls-8{fill:#ffc794;}.cls-9{fill:#ffc94a;}.cls-10{fill:#d49b00;}.cls-11{fill:#ffffac;}.cls-12{fill:#00262a;}.cls-13{fill:#74d8b4;}.cls-14{fill:#f7941d;}.cls-15{fill:#f8f8f8;}.cls-15,.cls-16{stroke:#464646;stroke-miterlimit:10;stroke-width:2px;}.cls-16{fill:none;stroke-linecap:round;}.cls-17{fill:#464646;}.cls-18{fill:#231f20;opacity:0.5;}</style></defs><title>knight-move</title><rect class="cls-1" y="400" width="100" height="100"/><rect class="cls-2" x="200" y="400" width="100" height="100"/><rect class="cls-2" x="400" y="400" width="100" height="100"/><rect class="cls-3" x="100" y="300" width="100" height="100"/><rect class="cls-1" x="300" y="300" width="100" height="100"/><rect class="cls-1" y="200" width="100" height="100"/><rect class="cls-4" x="100" y="200" width="100" height="100"/><rect class="cls-5" x="400" y="200" width="100" height="100"/><rect class="cls-2" x="100" y="100" width="100" height="100"/><rect class="cls-1" x="300" y="100" width="100" height="100"/><rect class="cls-3" width="100" height="100"/><rect class="cls-6" x="100" width="100" height="100"/><rect class="cls-2" x="200" width="100" height="100"/><rect class="cls-3" x="400" width="100" height="100"/><rect class="cls-6" x="100" y="400" width="100" height="100"/><rect class="cls-7" x="100" y="495" width="100" height="5"/><rect class="cls-8" x="100" y="400" width="100" height="5"/><rect class="cls-6" x="400" y="300" width="100" height="100"/><rect class="cls-7" x="400" y="395" width="100" height="5"/><rect class="cls-8" x="400" y="300" width="100" height="5"/><rect class="cls-6" x="400" y="100" width="100" height="100"/><rect class="cls-7" x="400" y="195" width="100" height="5"/><rect class="cls-8" x="400" y="100" width="100" height="5"/><rect class="cls-9" x="200" y="100" width="100" height="100"/><rect class="cls-10" x="200" y="195" width="100" height="5"/><rect class="cls-11" x="200" y="100" width="100" height="5"/><rect class="cls-9" x="200" y="300" width="100" height="100"/><rect class="cls-10" x="200" y="395" width="100" height="5"/><rect class="cls-11" x="200" y="300" width="100" height="5"/><rect class="cls-9" x="300" width="100" height="100"/><rect class="cls-10" x="300" y="95" width="100" height="5"/><rect class="cls-11" x="300" width="100" height="5"/><rect class="cls-9" y="300" width="100" height="100"/><rect class="cls-10" y="395" width="100" height="5"/><rect class="cls-11" y="300" width="100" height="5"/><rect class="cls-9" y="100" width="100" height="100"/><rect class="cls-12" x="100" y="295" width="100" height="5"/><rect class="cls-13" x="100" y="200" width="100" height="5"/><rect class="cls-10" y="195" width="100" height="5"/><rect class="cls-11" y="100" width="100" height="5"/><rect class="cls-7" x="100" y="95" width="100" height="5"/><rect class="cls-8" x="100" width="100" height="5"/><rect class="cls-9" x="300" y="400" width="100" height="100"/><rect class="cls-10" x="300" y="495" width="100" height="5"/><rect class="cls-11" x="300" y="400" width="100" height="5"/><rect class="cls-9" x="300" y="200" width="100" height="100"/><rect class="cls-10" x="300" y="295" width="100" height="5"/><rect class="cls-11" x="300" y="200" width="100" height="5"/><rect class="cls-2" x="200" y="200" width="100" height="100"/><path class="cls-14" d="M319.13,519.86l0,12.63s-10.6-2.28-16.13-3.41c0,0,7.66-2.94,11.38-3.78,0,0-2.66-8.34,4.73-5.7" transform="translate(-100 -300)"/><path class="cls-15" d="M381.77,545.24s-.57,33.07-27.06,33.07-27-12-27-17.24,5.53-20.5,5.15-24.21-11.53-2.1-13.48-5-2.85-9.14-.17-11.34,10.08-2.33,15.84-.66,10.58,9.1,11.39,13a104.75,104.75,0,0,0,2.85,11.63,40.7,40.7,0,0,1,25.24-3.89,16.48,16.48,0,0,1-.08,5.92C378.68,545.83,381.77,545.24,381.77,545.24Z" transform="translate(-100 -300)"/><path class="cls-16" d="M349.31,544.49A38.27,38.27,0,0,0,339,552" transform="translate(-100 -300)"/><path class="cls-15" d="M365.31,574H334.79c-6.46,0-14.23,2.9-14.23,7.53v9.37h59v-9.37C379.54,576.86,371.77,574,365.31,574Z" transform="translate(-100 -300)"/><circle class="cls-17" cx="223.86" cy="225.11" r="1.74"/><path class="cls-16" d="M374.47,546.52c-1,5.78-5.08,14.63-19.64,21" transform="translate(-100 -300)"/><circle class="cls-18" cx="150" cy="50" r="25"/><circle class="cls-18" cx="50" cy="150" r="25"/><circle class="cls-18" cx="50" cy="350" r="25"/><circle class="cls-18" cx="150" cy="450" r="25"/><circle class="cls-18" cx="350" cy="450" r="25"/><circle class="cls-18" cx="450" cy="350" r="25"/><circle class="cls-18" cx="450" cy="150" r="25"/><circle class="cls-18" cx="350" cy="50" r="25"/></svg>