<?xml version="1.0" encoding="utf-8"?>
<!-- Generator: Adobe Illustrator 24.0.0, SVG Export Plug-In . SVG Version: 6.00 Build 0)  -->
<svg version="1.1" id="Layer_1" xmlns="http://www.w3.org/2000/svg" xmlns:xlink="http://www.w3.org/1999/xlink" x="0px" y="0px"
	 viewBox="0 0 100 100" style="enable-background:new 0 0 100 100;" xml:space="preserve">
<style type="text/css">
	.st0{fill:#FFE9ED;}
	.st1{enable-background:new    ;}
	.st2{fill:#FF35DF;}
</style>
<title>ช่องเวทย์มนต์ทวีคูณ</title>
<rect class="st0" width="100" height="100"/>
<g class="st1">
	<path class="st2" d="M35.7,50.9l-8-10.6H33l5.3,7.1l5.3-7.1h5.3l-8,10.6l8,10.6h-5.3l-5.3-7.1L33,61.5h-5.3L35.7,50.9z"/>
	<path class="st2" d="M65.9,44.5H53.2v-4.3h12.8c1.8,0,3.3,0.6,4.5,1.9c1.2,1.2,1.9,2.7,1.9,4.5c0,1.8-0.6,3.3-1.9,4.5
		c-1.2,1.2-2.7,1.9-4.5,1.9h-2.1v1.1h-4.3v-5.3h6.4c0.6,0,1.1-0.2,1.5-0.6c0.4-0.4,0.6-0.9,0.6-1.5s-0.2-1.1-0.6-1.5
		C67,44.7,66.5,44.5,65.9,44.5z M61.7,61.5c-0.7,0-1.4-0.3-1.9-0.8c-0.5-0.5-0.8-1.1-0.8-1.9s0.3-1.4,0.8-1.9
		c0.5-0.5,1.1-0.8,1.9-0.8s1.4,0.3,1.9,0.8c0.5,0.5,0.8,1.1,0.8,1.9s-0.3,1.4-0.8,1.9C63,61.2,62.4,61.5,61.7,61.5z"/>
</g>
</svg>
